<?xml version="1.0" ?><svg height="32" id="svg5" version="1.1" viewBox="0 0 32 32" width="32" xmlns="http://www.w3.org/2000/svg" xmlns:svg="http://www.w3.org/2000/svg"><defs id="defs2"/><g id="layer1" transform="translate(-108,-292)"><path d="m 114,301 c -1.64501,0 -3,1.35499 -3,3 v 8 c 0,1.64501 1.35499,3 3,3 h 13 c 1.64501,0 3,-1.35499 3,-3 v -1.82617 l 4.58984,3.93555 c 0.89207,0.76464 2.41017,0.0656 2.41016,-1.10938 v -10 c 1e-5,-0.58746 -0.38009,-1.05542 -0.87109,-1.28125 -0.49101,-0.22583 -1.09303,-0.21044 -1.53907,0.17187 L 130,305.82617 V 304 c 0,-1.64501 -1.35499,-3 -3,-3 z m 0,2 h 13 c 0.56413,0 1,0.43587 1,1 v 8 c 0,0.56413 -0.43587,1 -1,1 h -13 c -0.56413,0 -1,-0.43587 -1,-1 v -8 c 0,-0.56413 0.43587,-1 1,-1 z m 21,1.17383 v 7.65234 L 130.53711,308 Z" id="rect12138" style="color:#000000;fill:#002cba;fill-opacity:1;fill-rule:evenodd;stroke-linecap:round;stroke-linejoin:round;stroke-miterlimit:4.1;-inkscape-stroke:none"/><path d="m 124,293 c -3.91172,0 -7.66969,1.52922 -10.4707,4.25977 a 1,1 0 0 0 -0.0176,1.41406 1,1 0 0 0 1.41406,0.0176 C 117.3538,296.32447 120.60918,295 124,295 c 3.40147,0 6.66568,1.33276 9.0957,3.71289 a 1,1 0 0 0 1.41407,-0.0156 1,1 0 0 0 -0.0137,-1.41407 C 131.69278,294.53744 127.924,293 124,293 Z" id="path12164" style="color:#000000;fill:#00c89f;fill-opacity:1;fill-rule:evenodd;stroke-linecap:round;stroke-linejoin:round;stroke-miterlimit:4.1;-inkscape-stroke:none"/><path d="m 133.80664,317.00195 a 1,1 0 0 0 -0.71094,0.28516 C 130.66568,319.66724 127.40147,321 124,321 c -3.39082,0 -6.6462,-1.32447 -9.07422,-3.69141 a 1,1 0 0 0 -1.41406,0.0176 1,1 0 0 0 0.0176,1.41406 C 116.33031,321.47078 120.08828,323 124,323 c 3.924,0 7.69278,-1.53744 10.49609,-4.2832 a 1,1 0 0 0 0.0137,-1.41407 1,1 0 0 0 -0.70313,-0.30078 z" id="path12160" style="color:#000000;fill:#00c89f;fill-opacity:1;fill-rule:evenodd;stroke-linecap:round;stroke-linejoin:round;stroke-miterlimit:4.1;-inkscape-stroke:none"/></g></svg>